Coordinates
version=1
nRows=32
nColumns=22
inDegrees=yes

Units are S.I. units (second, meters, Newtons, ...)
If the header above contains a line with 'inDegrees', this indicates whether rotational values are in degrees (yes) or radians (no).

endheader
time	pelvis_tilt	pelvis_list	pelvis_rotation	pelvis_tx	pelvis_ty	pelvis_tz	hip_flexion_r	hip_adduction_r	hip_rotation_r	knee_angle_r	ankle_angle_r	subtalar_angle_r	hip_flexion_l	hip_adduction_l	hip_rotation_l	knee_angle_l	ankle_angle_l	subtalar_angle_l	lumbar_extension	lumbar_bending	lumbar_rotation
      3.88000000	     -3.84059773	      1.91462081	   -101.50204658	      0.28760866	      0.89005845	      0.24141729	     25.36965327	     -1.73070038	      0.20328014	    -64.52102482	      4.75395011	      4.29461425	     15.87372831	     -6.43271411	     -8.45222802	    -22.93704832	      9.49970897	      4.41138874	     -2.51859706	      2.73517319	      7.74577184
      3.89000000	     -3.82785121	      1.97793903	   -101.30703912	      0.28826901	      0.89053495	      0.24482892	     25.61314296	     -1.70605561	      0.05439962	    -62.89146997	      5.43765574	      4.27442887	     15.53371822	     -6.29139898	     -8.42652570	    -22.54862197	      9.56336676	      4.40755199	     -2.45695979	      2.65639867	      7.42527477
      3.90000000	     -3.83318791	      2.03150775	   -101.10015168	      0.28887138	      0.89102139	      0.24821294	     25.72098120	     -1.66103138	     -0.04653340	    -61.04735818	      6.07794566	      4.18033272	     15.18361249	     -6.16867628	     -8.36147665	    -22.16098730	      9.62805552	      4.40863422	     -2.40441971	      2.59447435	      7.11687310
      3.91000000	     -3.85231457	      2.10044052	   -100.87508804	      0.28944180	      0.89145956	      0.25156304	     25.72945759	     -1.60151237	     -0.11470038	    -59.01694940	      6.70478795	      4.03786888	     14.86706126	     -6.06770891	     -8.29330184	    -21.79739169	      9.69376644	      4.41263339	     -2.33314092	      2.55417553	      6.82055065
      3.92000000	     -3.89229084	      2.16753417	   -100.63351844	      0.28996050	      0.89189887	      0.25490113	     25.61013248	     -1.51666855	     -0.13988387	    -56.79464897	      7.29901000	      3.84566555	     14.55472148	     -5.98971451	     -8.18662852	    -21.44585076	      9.76248859	      4.41751543	     -2.26038462	      2.53654748	      6.53757088
      3.93000000	     -3.94099309	      2.22673536	   -100.39975362	      0.29039659	      0.89235415	      0.25824066	     25.36535765	     -1.40620432	     -0.09066445	    -54.39723182	      7.84002563	      3.52264434	     14.22060232	     -5.92502876	     -8.06480404	    -21.07550999	      9.83068609	      4.43363630	     -2.19019396	      2.52598994	      6.31361002
      3.94000000	     -3.99954753	      2.31670166	   -100.11584021	      0.29085136	      0.89271662	      0.26158791	     25.03726298	     -1.30366115	     -0.05161221	    -51.85648753	      8.40274987	      3.35806771	     13.96301378	     -5.87500314	     -7.90677853	    -20.77265672	      9.91488059	      4.43078503	     -2.07493127	      2.53798551	      6.05011100
      3.95000000	     -4.06554671	      2.38503509	    -99.83875271	      0.29120635	      0.89310855	      0.26497008	     24.57290909	     -1.18015323	      0.05092393	    -49.17473330	      8.90981224	      3.16040187	     13.66683859	     -5.83716112	     -7.74515294	    -20.45140256	      9.99886498	      4.43211829	     -1.97217946	      2.55030296	      5.83482592
      3.96000000	     -4.11098509	      2.43269745	    -99.57932950	      0.29147085	      0.89350948	      0.26840177	     23.99188876	     -1.06587507	      0.22679112	    -46.38832369	      9.38453591	      2.89676985	     13.33155016	     -5.78192300	     -7.59324465	    -20.10655077	     10.07691754	      4.45595100	     -1.87309788	      2.53589041	      5.68532611
      3.97000000	     -4.17720222	      2.51418450	    -99.27211467	      0.29172532	      0.89380863	      0.27184813	     23.34239575	     -0.93977037	      0.39506268	    -43.51369651	      9.82200788	      2.80999592	     13.07161308	     -5.75771644	     -7.40250822	    -19.82717574	     10.17505108	      4.45496909	     -1.72468420	      2.55372751	      5.50568322
      3.98000000	     -4.21587795	      2.54608863	    -98.99057912	      0.29185913	      0.89414842	      0.27534552	     22.56036572	     -0.82678495	      0.66236274	    -40.58475901	     10.19516955	      2.71828366	     12.73275571	     -5.70622345	     -7.21957137	    -19.50967814	     10.28359671	      4.48293934	     -1.61014634	      2.52676381	      5.39581725
      3.99000000	     -4.25591306	      2.60415120	    -98.68793651	      0.29196372	      0.89439427	      0.27888374	     21.72698268	     -0.71830716	      0.94340942	    -37.62926914	     10.49458615	      2.70485123	     12.44174569	     -5.66885827	     -7.04628302	    -19.22738518	     10.37269542	      4.50514322	     -1.44626166	      2.51435048	      5.29157903
      4.00000000	     -4.25771130	      2.61879871	    -98.39584126	      0.29197522	      0.89462655	      0.28243717	     20.79741997	     -0.64183776	      1.31928598	    -34.70157052	     10.70911068	      2.74491272	     12.10563028	     -5.59200617	     -6.85156707	    -18.94808332	     10.48853587	      4.55480925	     -1.31143323	      2.44736179	      5.24010979
      4.01000000	     -4.23847975	      2.63490713	    -98.09431583	      0.29194156	      0.89477629	      0.28602579	     19.82458413	     -0.59542516	      1.73084244	    -31.83114603	     10.79853780	      2.85764441	     11.77948640	     -5.50164405	     -6.66653109	    -18.68085420	     10.60841701	      4.61362068	     -1.15051928	      2.36254267	      5.20122775
      4.02000000	     -4.20640556	      2.68789293	    -97.78315458	      0.29184938	      0.89479146	      0.28961246	     18.86782421	     -0.56397294	      2.16547615	    -29.06566314	     10.70024154	      3.00700263	     11.50913680	     -5.41202385	     -6.47902357	    -18.43758324	     10.72503557	      4.66124224	     -0.92812726	      2.27438940	      5.17057299
      4.03000000	     -4.12884117	      2.68945132	    -97.47000030	      0.29170935	      0.89476387	      0.29316058	     17.86024921	     -0.59460680	      2.64481116	    -26.46032380	     10.50128770	      3.22565589	     11.21084619	     -5.27331950	     -6.26752968	    -18.23592504	     10.88308318	      4.74168424	     -0.75139326	      2.12646941	      5.18734023
      4.04000000	     -4.02181918	      2.73266946	    -97.16306696	      0.29149722	      0.89458684	      0.29670306	     16.91608849	     -0.66375468	      3.10644625	    -24.05037752	     10.12964681	      3.47133790	     10.95657738	     -5.11776590	     -6.06290153	    -18.02703546	     11.02946142	      4.83500747	     -0.50571346	      1.95696813	      5.22308900
      4.05000000	     -3.90792706	      2.80567839	    -96.84646590	      0.29123488	      0.89426530	      0.30015332	     16.03386018	     -0.75266435	      3.51324358	    -21.85886987	      9.59064508	      3.65358216	     10.78515038	     -4.97121514	     -5.85872482	    -17.90194314	     11.21269786	      4.91056466	     -0.22405812	      1.78663803	      5.26900444
      4.06000000	     -3.75900459	      2.88548550	    -96.54545984	      0.29090302	      0.89385230	      0.30358527	     15.20404656	     -0.89253604	      3.84531145	    -19.91617350	      8.98482014	      3.80353994	     10.62107443	     -4.79522539	     -5.65812738	    -17.77594666	     11.39890977	      5.00354872	      0.08185944	      1.57952771	      5.34432206
      4.07000000	     -3.58996629	      3.00336596	    -96.25635107	      0.29051493	      0.89331573	      0.30696941	     14.46559294	     -1.06510111	      4.06208403	    -18.22818471	      8.36008984	      3.87060586	     10.50310276	     -4.61069278	     -5.48063183	    -17.65331443	     11.58156738	      5.08812084	      0.44055939	      1.35940367	      5.43097594
      4.08000000	     -3.39382226	      3.08369955	    -95.98235432	      0.29009580	      0.89276653	      0.31029038	     13.73460985	     -1.28466119	      4.16784477	    -16.78289534	      7.85090158	      3.85705358	     10.35876644	     -4.39638867	     -5.29916321	    -17.55598687	     11.79180569	      5.19048487	      0.75624596	      1.10599296	      5.55481359
      4.09000000	     -3.18386288	      3.18652417	    -95.72897918	      0.28962992	      0.89215465	      0.31357337	     13.07127254	     -1.52614412	      4.14685769	    -15.55877395	      7.49426071	      3.75234791	     10.22782050	     -4.17542638	     -5.14746703	    -17.43839539	     11.98652930	      5.27668734	      1.10386343	      0.84562366	      5.69042343
      4.10000000	     -2.95864347	      3.29850736	    -95.50539897	      0.28909816	      0.89151860	      0.31681587	     12.45455108	     -1.78431407	      4.02170846	    -14.51774372	      7.33064572	      3.59192673	     10.08467533	     -3.94455308	     -5.02602914	    -17.28248937	     12.16053735	      5.34925033	      1.46610323	      0.57232596	      5.84345399
      4.11000000	     -2.72199734	      3.38000584	    -95.31864761	      0.28849669	      0.89092406	      0.31999356	     11.83002758	     -2.05114702	      3.83528952	    -13.60481687	      7.36987949	      3.36732410	      9.89362285	     -3.70434560	     -4.93576882	    -17.10430060	     12.33644526	      5.41720171	      1.78976657	      0.28620357	      6.03579081
      4.12000000	     -2.49311180	      3.43230561	    -95.18370282	      0.28780000	      0.89039604	      0.32311286	     11.19186811	     -2.29637562	      3.63487286	    -12.77235310	      7.56024053	      3.06252681	      9.64699384	     -3.47938391	     -4.90910338	    -16.89517676	     12.51677606	      5.47635382	      2.07401490	      0.01230057	      6.27969336
      4.13000000	     -2.26339184	      3.49915686	    -95.09411178	      0.28701016	      0.88990720	      0.32616897	     10.59036005	     -2.52563472	      3.41398478	    -11.98807343	      7.78974259	      2.79930443	      9.37441485	     -3.25940341	     -4.91150144	    -16.61042842	     12.63801398	      5.52420581	      2.37387412	     -0.25426562	      6.54456107
      4.14000000	     -2.06150193	      3.52933350	    -95.07185353	      0.28608349	      0.88953649	      0.32914891	      9.96576227	     -2.70530056	      3.24482943	    -11.21969672	      8.04080858	      2.50354313	      9.03422070	     -3.07850495	     -4.98631878	    -16.29078128	     12.76051208	      5.56437034	      2.62104522	     -0.48577811	      6.87126270
      4.15000000	     -1.88771511	      3.55337399	    -95.10719769	      0.28504530	      0.88925805	      0.33204372	      9.36451183	     -2.83859338	      3.12759668	    -10.47652622	      8.25797006	      2.22953797	      8.65969380	     -2.93518297	     -5.11385092	    -15.92875031	     12.85830041	      5.60027975	      2.85084393	     -0.67612531	      7.23738340
      4.16000000	     -1.74852141	      3.57391371	    -95.19531219	      0.28389601	      0.88906995	      0.33483844	      8.79852209	     -2.92240702	      3.07588946	     -9.76935701	      8.42234481	      2.00228734	      8.26085715	     -2.83637342	     -5.28897223	    -15.53609023	     12.93508624	      5.63469651	      3.06297060	     -0.81983083	      7.64013604
      4.17000000	     -1.64969043	      3.59146698	    -95.32992422	      0.28264869	      0.88897660	      0.33753217	      8.27863293	     -2.95733648	      3.08455882	     -9.11839157	      8.53389193	      1.83281723	      7.84482955	     -2.78753968	     -5.50155773	    -15.12248042	     12.99429146	      5.67192223	      3.25688927	     -0.90922124	      8.06074187
      4.18000000	     -1.59135324	      3.61096569	    -95.50154647	      0.28133498	      0.88895741	      0.34011108	      7.81604812	     -2.94865927	      3.14819800	     -8.53738967	      8.59702104	      1.73593336	      7.42730248	     -2.78495946	     -5.73007946	    -14.70630171	     13.04061497	      5.71691399	      3.43480701	     -0.94319376	      8.48742503
      4.19000000	     -1.57186448	      3.65125596	    -95.69643569	      0.27997265	      0.88897760	      0.34256768	      7.43270569	     -2.89941296	      3.26621729	     -8.03428879	      8.61109075	      1.72662542	      7.03706691	     -2.82922477	     -5.96822744	    -14.29726280	     13.07809540	      5.76747096	      3.61839183	     -0.92536590	      8.91331113
